<?xml version="1.0" encoding="UTF-8"?><!DOCTYPE svg PUBLIC "-//W3C//DTD SVG 1.0//EN" "http://www.w3.org/TR/2001/REC-SVG-20010904/DTD/svg10.dtd" []><svg xmlns="http://www.w3.org/2000/svg" xmlns:xlink="http://www.w3.org/1999/xlink" height="480.0" preserveAspectRatio="xMidYMid meet" version="1.0" viewBox="16.7 16.0 480.0 480.0" width="480.0" zoomAndPan="magnify"><g id="change1_1"><circle cx="256.711" cy="256" r="240"/></g><g id="change2_1"><path d="M112.93348,168.52297c2.44136-1.61602,5.36687-2.55935,8.51392-2.55935H390.55259c3.52837,0,6.77849,1.18545,9.3794,3.17643l-143.84424,78.07195L112.93348,168.52297Zm291.21631,169.40133c1.17979-2.18235,1.85021-4.68035,1.85021-7.33531V183.30286l-88.7419,47.31524,86.8917,107.30619ZM106,182.24452v148.34446c0,1.36487,.17888,2.68764,.51126,3.94819l88.4008-103.91121-88.91206-48.38144Zm197.42137,56.13263l-43.55591,24.42427c-1.17272,.65769-2.4749,.98669-3.77709,.98669-1.30156,0-2.60311-.32869-3.77583-.98606l-43.56204-24.41877-91.29544,107.12936c1.27382,.33992,2.61136,.52375,3.99234,.52375H390.55259c.09977,0,.19812-.00566,.29726-.00754l-87.42849-107.65169Z" fill="#fff"/></g></svg>